<mxfile host="app.diagrams.net" agent="Mozilla/5.0 (Windows NT 10.0; Win64; x64) AppleWebKit/537.36 (KHTML, like Gecko) Chrome/131.0.0.0 Safari/537.36" version="25.0.3">
  <diagram name="Page-1" id="s5rgR3Ujm9bmJ1XrKmFZ">
    <mxGraphModel dx="4185" dy="5730" grid="1" gridSize="10" guides="1" tooltips="1" connect="1" arrows="1" fold="1" page="1" pageScale="1" pageWidth="1600" pageHeight="900" math="0" shadow="0">
      <root>
        <mxCell id="0" />
        <mxCell id="1" parent="0" />
        <mxCell id="GSt81eZn4UCVq8PMYxKK-26" value="AWS Cloud" style="points=[[0,0],[0.25,0],[0.5,0],[0.75,0],[1,0],[1,0.25],[1,0.5],[1,0.75],[1,1],[0.75,1],[0.5,1],[0.25,1],[0,1],[0,0.75],[0,0.5],[0,0.25]];outlineConnect=0;gradientColor=none;html=1;whiteSpace=wrap;fontSize=12;fontStyle=0;container=0;pointerEvents=0;collapsible=0;recursiveResize=0;shape=mxgraph.aws4.group;grIcon=mxgraph.aws4.group_aws_cloud_alt;strokeColor=#232F3E;fillColor=none;verticalAlign=top;align=left;spacingLeft=30;fontColor=#232F3E;dashed=0;" parent="1" vertex="1">
          <mxGeometry x="-10" y="-4030" width="2170" height="2520" as="geometry" />
        </mxCell>
        <mxCell id="GSt81eZn4UCVq8PMYxKK-67" value="" style="edgeStyle=orthogonalEdgeStyle;rounded=0;orthogonalLoop=1;jettySize=auto;html=1;" parent="1" source="GSt81eZn4UCVq8PMYxKK-21" target="GSt81eZn4UCVq8PMYxKK-20" edge="1">
          <mxGeometry relative="1" as="geometry" />
        </mxCell>
        <mxCell id="GSt81eZn4UCVq8PMYxKK-21" value="&lt;font style=&quot;font-size: 24px;&quot;&gt;&lt;b&gt;SOURCE S3 BUCKET&lt;/b&gt;&lt;/font&gt;" style="text;strokeColor=none;align=center;fillColor=none;html=1;verticalAlign=middle;whiteSpace=wrap;rounded=0;" parent="1" vertex="1">
          <mxGeometry x="116" y="-2030" width="150" height="30" as="geometry" />
        </mxCell>
        <mxCell id="GSt81eZn4UCVq8PMYxKK-20" value="" style="sketch=0;points=[[0,0,0],[0.25,0,0],[0.5,0,0],[0.75,0,0],[1,0,0],[0,1,0],[0.25,1,0],[0.5,1,0],[0.75,1,0],[1,1,0],[0,0.25,0],[0,0.5,0],[0,0.75,0],[1,0.25,0],[1,0.5,0],[1,0.75,0]];outlineConnect=0;fontColor=#232F3E;fillColor=#7AA116;strokeColor=#ffffff;dashed=0;verticalLabelPosition=bottom;verticalAlign=top;align=center;html=1;fontSize=12;fontStyle=0;aspect=fixed;shape=mxgraph.aws4.resourceIcon;resIcon=mxgraph.aws4.s3;" parent="1" vertex="1">
          <mxGeometry x="122" y="-2200" width="138" height="138" as="geometry" />
        </mxCell>
        <mxCell id="GSt81eZn4UCVq8PMYxKK-19" value="" style="edgeStyle=orthogonalEdgeStyle;rounded=0;orthogonalLoop=1;jettySize=auto;html=1;" parent="1" source="GSt81eZn4UCVq8PMYxKK-20" edge="1">
          <mxGeometry relative="1" as="geometry">
            <mxPoint x="191" y="-2481.75" as="targetPoint" />
          </mxGeometry>
        </mxCell>
        <mxCell id="GSt81eZn4UCVq8PMYxKK-18" value="&lt;font style=&quot;font-size: 24px;&quot;&gt;&lt;b&gt;SOURCE ATHENA TABLES&lt;/b&gt;&lt;/font&gt;" style="text;strokeColor=none;align=center;fillColor=none;html=1;verticalAlign=middle;whiteSpace=wrap;rounded=0;" parent="1" vertex="1">
          <mxGeometry x="56" y="-2452.96" width="270" height="70" as="geometry" />
        </mxCell>
        <mxCell id="GSt81eZn4UCVq8PMYxKK-25" value="&lt;font style=&quot;font-size: 24px;&quot;&gt;&lt;b&gt;EVENT BRIDGE TO SCHEDULE&amp;nbsp; ETL&lt;/b&gt;&lt;/font&gt;" style="text;strokeColor=none;align=center;fillColor=none;html=1;verticalAlign=middle;whiteSpace=wrap;rounded=0;" parent="1" vertex="1">
          <mxGeometry x="620.0000000000001" y="-3660" width="200" height="120" as="geometry" />
        </mxCell>
        <mxCell id="GSt81eZn4UCVq8PMYxKK-59" value="" style="rounded=0;whiteSpace=wrap;html=1;shadow=1;" parent="1" vertex="1">
          <mxGeometry x="420" y="-3510" width="650" height="1190" as="geometry" />
        </mxCell>
        <mxCell id="GSt81eZn4UCVq8PMYxKK-73" value="" style="edgeStyle=orthogonalEdgeStyle;rounded=0;orthogonalLoop=1;jettySize=auto;html=1;" parent="1" source="GSt81eZn4UCVq8PMYxKK-14" target="GSt81eZn4UCVq8PMYxKK-32" edge="1">
          <mxGeometry relative="1" as="geometry">
            <mxPoint x="725" y="-3765" as="targetPoint" />
          </mxGeometry>
        </mxCell>
        <mxCell id="GSt81eZn4UCVq8PMYxKK-14" value="" style="sketch=0;outlineConnect=0;fontColor=#232F3E;gradientColor=none;fillColor=#E7157B;strokeColor=none;dashed=0;verticalLabelPosition=bottom;verticalAlign=top;align=center;html=1;fontSize=12;fontStyle=0;aspect=fixed;pointerEvents=1;shape=mxgraph.aws4.eventbridge_scheduler;" parent="1" vertex="1">
          <mxGeometry x="640" y="-3820" width="150" height="150" as="geometry" />
        </mxCell>
        <mxCell id="GSt81eZn4UCVq8PMYxKK-29" value="" style="sketch=0;points=[[0,0,0],[0.25,0,0],[0.5,0,0],[0.75,0,0],[1,0,0],[0,1,0],[0.25,1,0],[0.5,1,0],[0.75,1,0],[1,1,0],[0,0.25,0],[0,0.5,0],[0,0.75,0],[1,0.25,0],[1,0.5,0],[1,0.75,0]];outlineConnect=0;fontColor=#232F3E;fillColor=#7AA116;strokeColor=#ffffff;dashed=0;verticalLabelPosition=bottom;verticalAlign=top;align=center;html=1;fontSize=12;fontStyle=0;aspect=fixed;shape=mxgraph.aws4.resourceIcon;resIcon=mxgraph.aws4.s3;" parent="1" vertex="1">
          <mxGeometry x="700" y="-2240" width="148" height="148" as="geometry" />
        </mxCell>
        <mxCell id="GSt81eZn4UCVq8PMYxKK-30" value="&lt;font style=&quot;font-size: 24px;&quot;&gt;&lt;b&gt;TARGET S3 BUCKET&lt;/b&gt;&lt;/font&gt;" style="text;strokeColor=none;align=center;fillColor=none;html=1;verticalAlign=middle;whiteSpace=wrap;rounded=0;" parent="1" vertex="1">
          <mxGeometry x="700" y="-2080" width="150" height="90" as="geometry" />
        </mxCell>
        <mxCell id="GSt81eZn4UCVq8PMYxKK-48" value="" style="edgeStyle=orthogonalEdgeStyle;rounded=0;orthogonalLoop=1;jettySize=auto;html=1;entryX=0.5;entryY=0;entryDx=0;entryDy=0;entryPerimeter=0;exitX=0.5;exitY=1;exitDx=0;exitDy=0;exitPerimeter=0;" parent="1" source="GSt81eZn4UCVq8PMYxKK-76" target="GSt81eZn4UCVq8PMYxKK-33" edge="1">
          <mxGeometry relative="1" as="geometry">
            <mxPoint x="605" y="-2765" as="targetPoint" />
          </mxGeometry>
        </mxCell>
        <mxCell id="GSt81eZn4UCVq8PMYxKK-32" value="" style="outlineConnect=0;dashed=0;verticalLabelPosition=bottom;verticalAlign=top;align=center;html=1;shape=mxgraph.aws3.lambda_function;fillColor=#F58534;gradientColor=none;" parent="1" vertex="1">
          <mxGeometry x="480" y="-3250" width="150" height="150" as="geometry" />
        </mxCell>
        <mxCell id="GSt81eZn4UCVq8PMYxKK-52" value="" style="edgeStyle=orthogonalEdgeStyle;rounded=0;orthogonalLoop=1;jettySize=auto;html=1;" parent="1" source="GSt81eZn4UCVq8PMYxKK-33" target="GSt81eZn4UCVq8PMYxKK-5" edge="1">
          <mxGeometry relative="1" as="geometry">
            <mxPoint x="963" y="-2550" as="targetPoint" />
          </mxGeometry>
        </mxCell>
        <mxCell id="QA6xQGkdBO1xKnfdSz9o-2" value="" style="edgeStyle=orthogonalEdgeStyle;rounded=0;orthogonalLoop=1;jettySize=auto;html=1;" edge="1" parent="1" source="GSt81eZn4UCVq8PMYxKK-33" target="GSt81eZn4UCVq8PMYxKK-29">
          <mxGeometry relative="1" as="geometry">
            <mxPoint x="773" y="-2350" as="targetPoint" />
          </mxGeometry>
        </mxCell>
        <mxCell id="GSt81eZn4UCVq8PMYxKK-33" value="" style="outlineConnect=0;dashed=0;verticalLabelPosition=bottom;verticalAlign=top;align=center;html=1;shape=mxgraph.aws3.emr;fillColor=#F58534;gradientColor=none;" parent="1" vertex="1">
          <mxGeometry x="698" y="-2625" width="150" height="150" as="geometry" />
        </mxCell>
        <mxCell id="GSt81eZn4UCVq8PMYxKK-71" value="" style="edgeStyle=orthogonalEdgeStyle;rounded=0;orthogonalLoop=1;jettySize=auto;html=1;entryX=0;entryY=0.25;entryDx=0;entryDy=0;entryPerimeter=0;" parent="1" source="GSt81eZn4UCVq8PMYxKK-34" target="GSt81eZn4UCVq8PMYxKK-41" edge="1">
          <mxGeometry relative="1" as="geometry">
            <mxPoint x="923" y="-3375" as="targetPoint" />
          </mxGeometry>
        </mxCell>
        <mxCell id="GSt81eZn4UCVq8PMYxKK-34" value="" style="outlineConnect=0;dashed=0;verticalLabelPosition=bottom;verticalAlign=top;align=center;html=1;shape=mxgraph.aws3.lambda_function;fillColor=#F58534;gradientColor=none;" parent="1" vertex="1">
          <mxGeometry x="848" y="-3250" width="150" height="150" as="geometry" />
        </mxCell>
        <mxCell id="GSt81eZn4UCVq8PMYxKK-40" value="" style="outlineConnect=0;dashed=0;verticalLabelPosition=bottom;verticalAlign=top;align=center;html=1;shape=mxgraph.aws3.cloudwatch;fillColor=#759C3E;gradientColor=none;" parent="1" vertex="1">
          <mxGeometry x="1280" y="-2991.5" width="150" height="153" as="geometry" />
        </mxCell>
        <mxCell id="GSt81eZn4UCVq8PMYxKK-41" value="" style="sketch=0;points=[[0,0,0],[0.25,0,0],[0.5,0,0],[0.75,0,0],[1,0,0],[0,1,0],[0.25,1,0],[0.5,1,0],[0.75,1,0],[1,1,0],[0,0.25,0],[0,0.5,0],[0,0.75,0],[1,0.25,0],[1,0.5,0],[1,0.75,0]];outlineConnect=0;fontColor=#232F3E;fillColor=#DD344C;strokeColor=#ffffff;dashed=0;verticalLabelPosition=bottom;verticalAlign=top;align=center;html=1;fontSize=12;fontStyle=0;aspect=fixed;shape=mxgraph.aws4.resourceIcon;resIcon=mxgraph.aws4.simple_email_service;" parent="1" vertex="1">
          <mxGeometry x="1285.5" y="-3270" width="149" height="149" as="geometry" />
        </mxCell>
        <mxCell id="GSt81eZn4UCVq8PMYxKK-1" style="edgeStyle=orthogonalEdgeStyle;rounded=0;orthogonalLoop=1;jettySize=auto;html=1;" parent="1" target="GSt81eZn4UCVq8PMYxKK-12" edge="1">
          <mxGeometry relative="1" as="geometry">
            <mxPoint x="1456.88" y="-2526.25" as="targetPoint" />
            <mxPoint x="1376.88" y="-2526.75" as="sourcePoint" />
          </mxGeometry>
        </mxCell>
        <mxCell id="GSt81eZn4UCVq8PMYxKK-5" value="" style="sketch=0;outlineConnect=0;fontColor=#232F3E;gradientColor=none;fillColor=#8C4FFF;strokeColor=none;dashed=0;verticalLabelPosition=bottom;verticalAlign=top;align=center;html=1;fontSize=12;fontStyle=0;aspect=fixed;pointerEvents=1;shape=mxgraph.aws4.glue_crawlers;" parent="1" vertex="1">
          <mxGeometry x="1110" y="-2615" width="130" height="130" as="geometry" />
        </mxCell>
        <mxCell id="GSt81eZn4UCVq8PMYxKK-6" value="&lt;font style=&quot;font-size: 24px;&quot;&gt;&lt;b&gt;GLUE CRAWLER&lt;/b&gt;&lt;/font&gt;" style="text;strokeColor=none;align=center;fillColor=none;html=1;verticalAlign=middle;whiteSpace=wrap;rounded=0;" parent="1" vertex="1">
          <mxGeometry x="1162.88" y="-2472.25" width="60" height="50" as="geometry" />
        </mxCell>
        <mxCell id="GSt81eZn4UCVq8PMYxKK-9" value="" style="edgeStyle=orthogonalEdgeStyle;rounded=0;orthogonalLoop=1;jettySize=auto;html=1;" parent="1" source="GSt81eZn4UCVq8PMYxKK-12" edge="1">
          <mxGeometry relative="1" as="geometry">
            <mxPoint x="1846.88" y="-2528.25" as="targetPoint" />
          </mxGeometry>
        </mxCell>
        <mxCell id="GSt81eZn4UCVq8PMYxKK-10" value="" style="edgeStyle=orthogonalEdgeStyle;rounded=0;orthogonalLoop=1;jettySize=auto;html=1;" parent="1" source="GSt81eZn4UCVq8PMYxKK-12" target="GSt81eZn4UCVq8PMYxKK-17" edge="1">
          <mxGeometry relative="1" as="geometry" />
        </mxCell>
        <mxCell id="GSt81eZn4UCVq8PMYxKK-11" style="edgeStyle=orthogonalEdgeStyle;rounded=0;orthogonalLoop=1;jettySize=auto;html=1;" parent="1" source="GSt81eZn4UCVq8PMYxKK-12" target="GSt81eZn4UCVq8PMYxKK-27" edge="1">
          <mxGeometry relative="1" as="geometry" />
        </mxCell>
        <mxCell id="GSt81eZn4UCVq8PMYxKK-12" value="" style="sketch=0;outlineConnect=0;fontColor=#232F3E;gradientColor=none;fillColor=#8C4FFF;strokeColor=none;dashed=0;verticalLabelPosition=bottom;verticalAlign=top;align=center;html=1;fontSize=12;fontStyle=0;aspect=fixed;pointerEvents=1;shape=mxgraph.aws4.glue_data_catalog;" parent="1" vertex="1">
          <mxGeometry x="1516.88" y="-2600.54" width="136.23" height="147.58" as="geometry" />
        </mxCell>
        <mxCell id="GSt81eZn4UCVq8PMYxKK-15" value="" style="outlineConnect=0;dashed=0;verticalLabelPosition=bottom;verticalAlign=top;align=center;html=1;shape=mxgraph.aws3.athena;fillColor=#F58534;gradientColor=none;" parent="1" vertex="1">
          <mxGeometry x="1866.88" y="-2625" width="130" height="150" as="geometry" />
        </mxCell>
        <mxCell id="GSt81eZn4UCVq8PMYxKK-16" value="&lt;font style=&quot;font-size: 24px;&quot;&gt;TARGET ATHENA TABLES&lt;/font&gt;" style="text;strokeColor=none;align=center;fillColor=none;html=1;verticalAlign=middle;whiteSpace=wrap;rounded=0;" parent="1" vertex="1">
          <mxGeometry x="1796.88" y="-2470.25" width="270" height="70" as="geometry" />
        </mxCell>
        <mxCell id="GSt81eZn4UCVq8PMYxKK-17" value="&lt;font style=&quot;font-size: 24px;&quot;&gt;&lt;b&gt;UPDATING GLUE CATALOG&lt;/b&gt;&lt;/font&gt;" style="text;strokeColor=none;align=center;fillColor=none;html=1;verticalAlign=middle;whiteSpace=wrap;rounded=0;" parent="1" vertex="1">
          <mxGeometry x="1534.1100000000001" y="-2386.75" width="93" height="30" as="geometry" />
        </mxCell>
        <mxCell id="GSt81eZn4UCVq8PMYxKK-27" value="" style="outlineConnect=0;dashed=0;verticalLabelPosition=bottom;verticalAlign=top;align=center;html=1;shape=mxgraph.aws3.athena;fillColor=#F58534;gradientColor=none;" parent="1" vertex="1">
          <mxGeometry x="1100" y="-2210" width="130" height="150" as="geometry" />
        </mxCell>
        <mxCell id="GSt81eZn4UCVq8PMYxKK-28" value="&lt;font style=&quot;font-size: 24px;&quot;&gt;&lt;b&gt;JOB LOG TABLE&lt;/b&gt;&lt;/font&gt;" style="text;strokeColor=none;align=center;fillColor=none;html=1;verticalAlign=middle;whiteSpace=wrap;rounded=0;" parent="1" vertex="1">
          <mxGeometry x="1030" y="-2070" width="270" height="70" as="geometry" />
        </mxCell>
        <mxCell id="GSt81eZn4UCVq8PMYxKK-23" value="" style="outlineConnect=0;dashed=0;verticalLabelPosition=bottom;verticalAlign=top;align=center;html=1;shape=mxgraph.aws3.athena;fillColor=#F58534;gradientColor=none;" parent="1" vertex="1">
          <mxGeometry x="126" y="-2615" width="130" height="130" as="geometry" />
        </mxCell>
        <mxCell id="GSt81eZn4UCVq8PMYxKK-50" value="" style="edgeStyle=orthogonalEdgeStyle;rounded=0;orthogonalLoop=1;jettySize=auto;html=1;" parent="1" source="GSt81eZn4UCVq8PMYxKK-23" target="GSt81eZn4UCVq8PMYxKK-33" edge="1">
          <mxGeometry relative="1" as="geometry">
            <mxPoint x="361" y="-2565" as="targetPoint" />
          </mxGeometry>
        </mxCell>
        <mxCell id="GSt81eZn4UCVq8PMYxKK-60" style="edgeStyle=orthogonalEdgeStyle;rounded=0;orthogonalLoop=1;jettySize=auto;html=1;entryX=0.1;entryY=0.5;entryDx=0;entryDy=0;entryPerimeter=0;" parent="1" source="GSt81eZn4UCVq8PMYxKK-59" target="GSt81eZn4UCVq8PMYxKK-40" edge="1">
          <mxGeometry relative="1" as="geometry" />
        </mxCell>
        <mxCell id="GSt81eZn4UCVq8PMYxKK-74" value="" style="edgeStyle=orthogonalEdgeStyle;rounded=0;orthogonalLoop=1;jettySize=auto;html=1;" parent="1" target="GSt81eZn4UCVq8PMYxKK-34" edge="1">
          <mxGeometry relative="1" as="geometry">
            <mxPoint x="783" y="-2615" as="sourcePoint" />
            <mxPoint x="565" y="-3090" as="targetPoint" />
          </mxGeometry>
        </mxCell>
        <mxCell id="GSt81eZn4UCVq8PMYxKK-75" value="&lt;font style=&quot;font-size: 24px;&quot;&gt;&lt;b&gt;SIMPLE EMAIL SERVICE&lt;/b&gt;&lt;/font&gt;" style="text;strokeColor=none;align=center;fillColor=none;html=1;verticalAlign=middle;whiteSpace=wrap;rounded=0;" parent="1" vertex="1">
          <mxGeometry x="1197.75" y="-3110" width="324.5" height="40" as="geometry" />
        </mxCell>
        <mxCell id="GSt81eZn4UCVq8PMYxKK-77" value="" style="edgeStyle=orthogonalEdgeStyle;rounded=0;orthogonalLoop=1;jettySize=auto;html=1;entryX=0.5;entryY=0;entryDx=0;entryDy=0;entryPerimeter=0;exitX=0.5;exitY=1;exitDx=0;exitDy=0;exitPerimeter=0;" parent="1" source="GSt81eZn4UCVq8PMYxKK-32" target="GSt81eZn4UCVq8PMYxKK-76" edge="1">
          <mxGeometry relative="1" as="geometry">
            <mxPoint x="555" y="-3100" as="sourcePoint" />
            <mxPoint x="773" y="-2625" as="targetPoint" />
          </mxGeometry>
        </mxCell>
        <mxCell id="GSt81eZn4UCVq8PMYxKK-76" value="&lt;font style=&quot;font-size: 24px;&quot;&gt;&lt;b&gt;LAMBDA FUNCTION TO TRIGGER EMR&lt;/b&gt;&lt;/font&gt;" style="text;strokeColor=none;align=center;fillColor=none;html=1;verticalAlign=middle;whiteSpace=wrap;rounded=0;" parent="1" vertex="1">
          <mxGeometry x="455" y="-3050" width="200" height="30" as="geometry" />
        </mxCell>
        <mxCell id="GSt81eZn4UCVq8PMYxKK-78" value="&lt;font style=&quot;font-size: 24px;&quot;&gt;&lt;b&gt;LAMBDA FUNCTION TO TERMINATE EMR &amp;amp; SEND EMAIL TO USERS&lt;/b&gt;&lt;/font&gt;" style="text;strokeColor=none;align=center;fillColor=none;html=1;verticalAlign=middle;whiteSpace=wrap;rounded=0;" parent="1" vertex="1">
          <mxGeometry x="770" y="-3050" width="320" height="30" as="geometry" />
        </mxCell>
        <mxCell id="GSt81eZn4UCVq8PMYxKK-79" value="&lt;font style=&quot;font-size: 24px;&quot;&gt;&lt;b&gt;CLOUD WATCH LOGS&lt;/b&gt;&lt;/font&gt;" style="text;strokeColor=none;align=center;fillColor=none;html=1;verticalAlign=middle;whiteSpace=wrap;rounded=0;" parent="1" vertex="1">
          <mxGeometry x="1260" y="-2810" width="200" height="30" as="geometry" />
        </mxCell>
        <mxCell id="7KI-FZ-Iz_XC3OaDi0jG-1" value="&lt;font style=&quot;font-size: 36px;&quot;&gt;&lt;b&gt;1&lt;/b&gt;&lt;/font&gt;" style="text;strokeColor=none;align=center;fillColor=none;html=1;verticalAlign=middle;whiteSpace=wrap;rounded=0;" parent="1" vertex="1">
          <mxGeometry x="788" y="-3820" width="60" height="30" as="geometry" />
        </mxCell>
        <mxCell id="GSt81eZn4UCVq8PMYxKK-80" value="&lt;font style=&quot;font-size: 24px;&quot;&gt;&lt;b&gt;EMR ON EC2&lt;/b&gt;&lt;/font&gt;" style="text;strokeColor=none;align=center;fillColor=none;html=1;verticalAlign=middle;whiteSpace=wrap;rounded=0;" parent="1" vertex="1">
          <mxGeometry x="683" y="-2452.96" width="200" height="42.96" as="geometry" />
        </mxCell>
        <mxCell id="7KI-FZ-Iz_XC3OaDi0jG-4" value="&lt;font style=&quot;font-size: 36px;&quot;&gt;&lt;b&gt;2&lt;/b&gt;&lt;/font&gt;" style="text;strokeColor=none;align=center;fillColor=none;html=1;verticalAlign=middle;whiteSpace=wrap;rounded=0;" parent="1" vertex="1">
          <mxGeometry x="470" y="-3290" width="60" height="30" as="geometry" />
        </mxCell>
        <mxCell id="7KI-FZ-Iz_XC3OaDi0jG-8" value="&lt;font style=&quot;font-size: 36px;&quot;&gt;&lt;b&gt;3&lt;/b&gt;&lt;/font&gt;" style="text;strokeColor=none;align=center;fillColor=none;html=1;verticalAlign=middle;whiteSpace=wrap;rounded=0;" parent="1" vertex="1">
          <mxGeometry x="683" y="-2660" width="60" height="30" as="geometry" />
        </mxCell>
        <mxCell id="7KI-FZ-Iz_XC3OaDi0jG-11" value="&lt;font style=&quot;font-size: 36px;&quot;&gt;&lt;b&gt;4&lt;/b&gt;&lt;/font&gt;" style="text;strokeColor=none;align=center;fillColor=none;html=1;verticalAlign=middle;whiteSpace=wrap;rounded=0;" parent="1" vertex="1">
          <mxGeometry x="260" y="-2615" width="60" height="30" as="geometry" />
        </mxCell>
        <mxCell id="7KI-FZ-Iz_XC3OaDi0jG-12" value="&lt;font style=&quot;font-size: 36px;&quot;&gt;&lt;b&gt;5&lt;/b&gt;&lt;/font&gt;" style="text;strokeColor=none;align=center;fillColor=none;html=1;verticalAlign=middle;whiteSpace=wrap;rounded=0;" parent="1" vertex="1">
          <mxGeometry x="220" y="-2265" width="60" height="30" as="geometry" />
        </mxCell>
        <mxCell id="7KI-FZ-Iz_XC3OaDi0jG-13" value="&lt;font style=&quot;font-size: 36px;&quot;&gt;&lt;b&gt;6&lt;/b&gt;&lt;/font&gt;" style="text;strokeColor=none;align=center;fillColor=none;html=1;verticalAlign=middle;whiteSpace=wrap;rounded=0;" parent="1" vertex="1">
          <mxGeometry x="630" y="-2250" width="60" height="30" as="geometry" />
        </mxCell>
        <mxCell id="7KI-FZ-Iz_XC3OaDi0jG-14" value="&lt;font style=&quot;font-size: 36px;&quot;&gt;&lt;b&gt;7&lt;/b&gt;&lt;/font&gt;" style="text;strokeColor=none;align=center;fillColor=none;html=1;verticalAlign=middle;whiteSpace=wrap;rounded=0;" parent="1" vertex="1">
          <mxGeometry x="1250" y="-2630" width="60" height="30" as="geometry" />
        </mxCell>
        <mxCell id="7KI-FZ-Iz_XC3OaDi0jG-16" value="&lt;font style=&quot;font-size: 36px;&quot;&gt;&lt;b&gt;8&lt;/b&gt;&lt;/font&gt;" style="text;strokeColor=none;align=center;fillColor=none;html=1;verticalAlign=middle;whiteSpace=wrap;rounded=0;" parent="1" vertex="1">
          <mxGeometry x="1640" y="-2640" width="60" height="30" as="geometry" />
        </mxCell>
        <mxCell id="7KI-FZ-Iz_XC3OaDi0jG-17" value="&lt;font style=&quot;font-size: 36px;&quot;&gt;&lt;b&gt;9&lt;/b&gt;&lt;/font&gt;" style="text;strokeColor=none;align=center;fillColor=none;html=1;verticalAlign=middle;whiteSpace=wrap;rounded=0;" parent="1" vertex="1">
          <mxGeometry x="2006.88" y="-2655" width="60" height="30" as="geometry" />
        </mxCell>
        <mxCell id="7KI-FZ-Iz_XC3OaDi0jG-18" value="&lt;font style=&quot;font-size: 36px;&quot;&gt;&lt;b&gt;10&lt;/b&gt;&lt;/font&gt;" style="text;strokeColor=none;align=center;fillColor=none;html=1;verticalAlign=middle;whiteSpace=wrap;rounded=0;" parent="1" vertex="1">
          <mxGeometry x="1190" y="-2250" width="130" height="30" as="geometry" />
        </mxCell>
        <mxCell id="7KI-FZ-Iz_XC3OaDi0jG-19" value="&lt;font style=&quot;font-size: 36px;&quot;&gt;&lt;b&gt;11&lt;/b&gt;&lt;/font&gt;" style="text;strokeColor=none;align=center;fillColor=none;html=1;verticalAlign=middle;whiteSpace=wrap;rounded=0;" parent="1" vertex="1">
          <mxGeometry x="930" y="-3310" width="60" height="30" as="geometry" />
        </mxCell>
        <mxCell id="7KI-FZ-Iz_XC3OaDi0jG-20" value="&lt;font style=&quot;font-size: 36px;&quot;&gt;&lt;b&gt;12&lt;/b&gt;&lt;/font&gt;" style="text;strokeColor=none;align=center;fillColor=none;html=1;verticalAlign=middle;whiteSpace=wrap;rounded=0;" parent="1" vertex="1">
          <mxGeometry x="1410" y="-3350" width="60" height="30" as="geometry" />
        </mxCell>
        <mxCell id="7KI-FZ-Iz_XC3OaDi0jG-21" value="&lt;font style=&quot;font-size: 36px;&quot;&gt;&lt;b&gt;13&lt;/b&gt;&lt;/font&gt;" style="text;strokeColor=none;align=center;fillColor=none;html=1;verticalAlign=middle;whiteSpace=wrap;rounded=0;" parent="1" vertex="1">
          <mxGeometry x="1390" y="-3020" width="60" height="30" as="geometry" />
        </mxCell>
        <mxCell id="QA6xQGkdBO1xKnfdSz9o-4" value="Text" style="text;html=1;align=center;verticalAlign=middle;resizable=0;points=[];autosize=1;strokeColor=none;fillColor=none;" vertex="1" parent="1">
          <mxGeometry x="415" y="-3802" width="50" height="30" as="geometry" />
        </mxCell>
      </root>
    </mxGraphModel>
  </diagram>
</mxfile>
